<?xml version="1.0" standalone="no"?>
<!DOCTYPE svg PUBLIC "-//W3C//DTD SVG 20010904//EN"
 "http://www.w3.org/TR/2001/REC-SVG-20010904/DTD/svg10.dtd">
<svg version="1.0" xmlns="http://www.w3.org/2000/svg"
 width="888.000000pt" height="888.000000pt" viewBox="0 0 888.000000 888.000000"
 preserveAspectRatio="xMidYMid meet">
<metadata>
Created by potrace 1.14, written by Peter Selinger 2001-2017
</metadata>
<g transform="translate(0.000000,888.000000) scale(0.100000,-0.100000)"
fill="#000000" stroke="none">
<path d="M4863 8485 c-82 -24 -175 -95 -244 -185 -13 -18 -29 -37 -35 -44 -44
-47 -132 -252 -149 -346 -18 -99 -5 -213 31 -278 55 -101 105 -116 210 -66 83
39 185 148 310 329 60 86 144 293 139 340 -10 87 -47 167 -100 213 -31 28 -47
35 -105 46 -9 2 -35 -3 -57 -9z"/>
<path d="M3648 8387 c-27 -5 -48 -13 -48 -19 0 -5 -4 -7 -9 -3 -6 3 -22 -10
-38 -30 -78 -98 -51 -242 72 -373 45 -48 208 -166 278 -202 15 -7 27 -17 27
-22 0 -4 4 -8 10 -8 5 0 36 -19 69 -42 166 -118 163 -116 193 -106 15 6 30 14
33 18 10 16 13 109 5 152 -5 24 -10 57 -13 73 -13 81 -67 276 -87 316 -79 155
-325 278 -492 246z"/>
<path d="M5948 8315 c-2 -2 -37 -5 -78 -9 -82 -7 -185 -28 -245 -50 -11 -5
-36 -14 -55 -21 -73 -27 -140 -59 -140 -67 0 -4 -5 -8 -12 -8 -13 0 -69 -36
-138 -89 -67 -52 -190 -178 -241 -246 -24 -33 -46 -62 -50 -65 -3 -3 -9 -12
-12 -20 -4 -8 -16 -28 -27 -45 -72 -108 -225 -476 -246 -592 -18 -96 -136
-147 -225 -96 -85 48 -141 33 -202 -53 -17 -25 -32 -49 -32 -52 0 -4 -3 -12
-7 -17 -10 -16 -46 -164 -53 -218 -9 -70 -63 -195 -146 -337 -11 -19 -25 -44
-32 -55 -6 -11 -10 -23 -9 -27 1 -5 -2 -8 -6 -8 -5 0 -32 -48 -60 -107 -70
-149 -82 -232 -47 -316 19 -45 99 -124 142 -139 18 -7 33 -16 33 -20 0 -4 9
-8 20 -8 11 0 20 -5 20 -12 0 -6 3 -9 6 -6 3 3 49 -11 102 -32 81 -31 107 -37
159 -35 62 3 116 26 168 73 25 22 66 80 69 95 1 7 5 17 8 23 11 17 13 95 4
133 -9 37 -24 64 -72 133 -18 24 -39 66 -48 93 -8 28 -27 82 -41 120 -13 39
-27 86 -29 105 -3 19 -5 35 -6 35 -7 0 -21 120 -24 200 -5 117 2 154 30 167
18 8 29 7 48 -6 35 -22 50 -53 61 -121 14 -97 97 -333 124 -355 3 -3 17 -22
31 -42 14 -21 28 -38 33 -38 4 0 7 -4 7 -10 0 -5 8 -18 18 -28 9 -10 35 -38
58 -63 60 -65 206 -197 270 -245 22 -16 41 -31 44 -34 3 -3 34 -30 70 -60 86
-72 171 -159 208 -212 35 -52 85 -148 76 -148 -4 0 -1 -7 6 -15 7 -8 10 -15 7
-15 -3 0 1 -24 9 -52 14 -53 14 -257 0 -323 -4 -16 -9 -41 -12 -55 -3 -14 -6
-29 -8 -35 -1 -5 -6 -32 -11 -60 -10 -62 -49 -173 -82 -234 -33 -60 -130 -207
-226 -346 -43 -60 -77 -115 -77 -122 0 -7 -4 -13 -8 -13 -5 0 -20 -21 -33 -47
-13 -27 -26 -50 -29 -53 -9 -8 -33 -69 -29 -73 2 -2 -2 -11 -10 -20 -7 -10
-10 -17 -7 -17 4 0 2 -10 -5 -22 -17 -32 -19 -115 -3 -167 16 -55 74 -119 142
-159 71 -41 376 -145 462 -158 19 -3 42 -7 50 -9 73 -20 157 -26 345 -27 193
0 244 3 370 26 93 17 265 60 300 75 11 5 63 24 115 42 92 33 312 137 418 199
112 64 321 209 402 279 14 11 45 38 70 58 62 51 316 307 367 368 63 76 106
130 128 161 11 15 29 38 40 50 54 59 73 84 113 142 23 34 40 62 36 62 -3 0 3
12 14 28 10 15 26 45 36 67 9 22 21 49 26 60 11 24 54 156 55 170 1 6 5 28 9
50 13 63 16 77 22 125 2 25 7 61 9 80 11 83 5 290 -10 390 -4 25 -9 56 -10 70
-26 181 -107 391 -210 545 -72 107 -191 228 -252 258 -13 5 -23 14 -23 19 0 4
-9 8 -20 8 -11 0 -20 3 -20 8 0 4 -15 13 -32 20 -18 8 -42 17 -53 22 -92 38
-170 49 -320 46 -123 -3 -145 -1 -184 17 -32 15 -48 30 -61 60 -10 22 -16 50
-14 61 11 52 14 97 15 176 3 355 -162 669 -492 933 -25 20 -51 37 -57 37 -6 0
-12 4 -14 9 -12 34 -311 169 -437 197 -78 17 -123 24 -186 29 -137 11 -155 12
-157 10z m231 -579 c244 -57 484 -236 567 -424 13 -29 23 -56 23 -60 -1 -4 0
-9 1 -12 8 -15 7 -92 -1 -135 -10 -53 -121 -280 -191 -392 -122 -196 -236
-309 -386 -382 -111 -55 -190 -71 -357 -71 -151 0 -221 9 -295 37 -8 4 -18 7
-21 7 -3 1 -29 15 -56 33 -47 28 -148 141 -138 152 3 2 1 9 -4 15 -46 59 -56
281 -19 421 5 22 11 47 13 55 8 38 62 172 97 238 61 118 136 221 222 308 114
114 194 164 346 217 18 6 165 1 199 -7z m1280 -1561 c84 -19 145 -43 200 -80
8 -5 44 -39 80 -75 70 -69 119 -154 140 -244 23 -93 10 -229 -31 -335 -5 -14
-9 -27 -9 -29 4 -11 -122 -231 -177 -309 -107 -151 -184 -233 -367 -391 -11
-10 -40 -31 -65 -47 -25 -17 -46 -33 -48 -37 -2 -5 -9 -8 -15 -8 -6 0 -18 -7
-27 -15 -15 -13 -46 -31 -160 -90 -63 -33 -192 -80 -280 -104 -67 -17 -96 -23
-190 -38 -14 -2 -101 -5 -195 -7 -153 -3 -180 -1 -265 20 -52 14 -115 34 -140
46 -25 12 -47 22 -50 23 -16 2 -102 69 -130 101 -91 104 -96 239 -16 447 39
102 128 256 202 347 255 313 532 538 858 694 64 31 122 56 129 56 7 0 17 4 23
8 21 18 166 57 254 69 25 3 46 7 48 8 9 8 182 0 231 -10z"/>
<path d="M2958 7905 c-1 -2 -57 -6 -122 -9 -66 -4 -129 -8 -140 -11 -12 -2
-43 -7 -71 -11 -88 -12 -99 -14 -165 -28 -115 -24 -225 -55 -326 -91 -55 -20
-103 -37 -109 -38 -59 -14 -309 -135 -445 -214 -103 -60 -283 -182 -288 -195
-2 -4 -9 -8 -16 -8 -6 0 -18 -9 -26 -20 -8 -11 -20 -20 -26 -20 -7 0 -14 -3
-16 -7 -1 -5 -34 -35 -73 -68 -89 -75 -265 -252 -330 -330 -28 -33 -58 -68
-67 -79 -10 -11 -30 -38 -45 -60 -15 -23 -31 -43 -34 -46 -3 -3 -27 -39 -54
-80 -26 -41 -55 -86 -63 -100 -9 -14 -17 -27 -17 -30 0 -3 -13 -25 -27 -50
-63 -105 -165 -352 -193 -466 -32 -128 -47 -194 -50 -219 -2 -16 -6 -48 -10
-70 -13 -94 -14 -262 0 -325 7 -36 14 -65 14 -65 0 0 3 -9 6 -20 46 -137 116
-246 244 -375 109 -110 145 -140 291 -248 47 -35 93 -70 103 -78 9 -8 20 -14
23 -14 2 0 10 -5 17 -10 17 -14 80 -61 114 -85 47 -33 198 -186 241 -245 47
-64 134 -210 126 -210 -4 0 -2 -6 4 -13 10 -12 44 -99 64 -165 8 -27 86 -176
116 -222 41 -62 137 -159 179 -181 16 -8 30 -17 33 -20 9 -10 114 -47 168 -59
51 -12 345 -9 467 4 242 26 413 111 484 238 25 47 55 169 66 278 7 58 6 253 0
280 -3 14 -8 36 -11 50 -3 14 -7 33 -10 42 -3 10 -8 30 -10 45 -3 16 -9 32
-15 38 -5 5 -9 17 -9 27 0 10 -4 18 -10 18 -5 0 -10 7 -10 15 0 20 -87 149
-133 197 -44 45 -161 138 -175 138 -6 0 -12 3 -14 8 -5 12 -134 77 -218 110
-107 42 -334 104 -435 118 -11 1 -38 5 -60 8 -22 3 -57 8 -78 11 -50 7 -152
59 -192 98 -35 35 -62 83 -60 107 1 8 3 25 3 37 2 26 70 106 83 97 5 -3 9 -1
9 5 0 5 15 13 33 16 17 4 37 10 42 14 15 9 167 9 193 0 12 -5 33 -11 45 -13
12 -2 114 -41 227 -86 209 -84 469 -174 478 -165 2 2 12 0 21 -5 26 -13 126
-23 222 -22 96 1 221 36 269 75 15 12 40 31 54 41 59 42 161 207 191 306 21
70 -14 193 -74 255 -103 108 -204 154 -371 169 -30 3 -109 -11 -175 -29 -11
-4 -24 -7 -30 -9 -5 -2 -23 -7 -39 -11 -16 -4 -41 -14 -55 -21 -14 -8 -30 -14
-34 -14 -10 0 -93 -38 -230 -106 -215 -107 -377 -169 -487 -188 -46 -8 -158
-9 -190 -2 -14 3 -38 8 -55 12 -67 14 -212 90 -223 116 -2 4 -8 8 -13 8 -26 0
-229 209 -229 236 0 4 -6 15 -14 23 -30 33 -99 191 -112 256 -2 11 -7 34 -11
50 -3 17 -8 46 -9 65 -1 19 -3 36 -4 38 -5 5 -5 142 0 142 3 0 6 21 7 46 5
106 74 285 146 379 45 59 120 130 169 161 51 33 157 76 169 69 4 -3 10 -1 13
4 16 25 230 6 323 -30 16 -6 28 -10 28 -9 0 1 34 -17 75 -40 160 -90 321 -244
472 -450 30 -41 86 -102 123 -135 37 -33 73 -64 79 -70 31 -28 126 -95 135
-95 5 0 11 -4 13 -9 5 -13 189 -112 218 -117 3 0 17 -6 32 -12 117 -48 309
-60 438 -27 8 2 15 4 15 5 0 1 10 3 23 6 69 13 211 108 287 192 45 51 115 152
115 168 0 5 5 15 11 21 25 25 82 210 95 308 17 135 -2 331 -41 430 -42 105
-61 146 -86 183 -16 24 -29 47 -29 52 0 15 -163 176 -215 212 -79 56 -222 128
-285 144 -8 2 -46 13 -85 24 -38 11 -88 23 -110 26 -22 3 -51 8 -65 10 -14 2
-56 7 -95 10 -38 3 -75 7 -82 9 -6 2 -13 2 -15 0z"/>
<path d="M3643 5648 c-52 -11 -81 -53 -84 -118 -3 -74 -45 -196 -71 -208 -5
-2 -8 -10 -8 -18 0 -8 -3 -14 -8 -14 -4 0 -14 -11 -22 -24 -16 -26 -107 -129
-200 -227 -30 -32 -62 -67 -70 -79 -8 -12 -25 -34 -38 -48 -12 -15 -28 -39
-35 -54 -6 -16 -15 -28 -19 -28 -5 0 -7 -3 -6 -7 1 -5 -5 -21 -12 -38 -16 -39
-20 -143 -7 -175 24 -55 106 -174 167 -240 83 -90 228 -246 245 -264 81 -83
178 -242 228 -371 55 -144 142 -266 226 -319 41 -26 127 -48 162 -41 69 13 88
20 135 45 79 43 148 90 242 165 40 31 226 221 281 285 87 103 91 108 135 170
22 30 43 57 48 58 4 2 8 8 8 14 0 6 15 31 33 57 18 25 41 63 52 84 11 20 23
37 28 37 4 0 6 4 2 9 -3 5 -1 12 5 16 9 5 88 163 123 245 20 46 59 161 62 180
1 8 7 34 14 56 33 119 31 284 -6 399 -22 71 -124 215 -151 215 -5 0 -17 8 -28
18 -43 40 -171 92 -288 117 -26 6 -115 7 -146 2 -55 -9 -150 -40 -161 -53 -6
-8 -16 -14 -21 -14 -18 0 -83 -69 -115 -122 -34 -56 -77 -169 -87 -228 -3 -19
-8 -46 -11 -60 -12 -61 -21 -187 -29 -435 -15 -420 -46 -607 -134 -785 -26
-54 -101 -140 -122 -140 -21 0 -59 75 -79 155 -7 28 -15 57 -18 65 -3 8 -7 22
-8 30 -2 8 -6 26 -10 40 -3 14 -8 32 -10 40 -2 8 -4 16 -5 18 -3 2 -3 2 -14
52 -5 19 -29 80 -55 135 -44 95 -46 105 -48 199 -1 55 1 104 4 109 3 6 7 26 9
45 2 19 31 114 64 211 34 97 62 181 63 186 2 6 5 15 9 20 23 37 50 189 51 285
1 181 -38 287 -122 330 -23 11 -41 19 -41 16 0 -2 -15 -1 -32 3 -18 4 -52 3
-75 -1z"/>
<path d="M247 4773 c-5 -4 -29 -10 -50 -12 -31 -3 -149 -172 -132 -189 2 -2
-1 -19 -8 -36 -19 -46 -22 -92 -21 -291 1 -170 7 -258 21 -315 4 -14 6 -28 5
-32 -1 -4 7 -54 19 -110 11 -57 22 -112 24 -123 5 -27 13 -63 19 -83 3 -9 7
-28 10 -42 5 -22 21 -84 30 -115 1 -5 8 -30 15 -55 7 -25 31 -101 54 -170 22
-69 40 -128 39 -132 -1 -5 2 -8 8 -8 5 0 10 -7 10 -16 0 -19 35 -107 111 -274
160 -353 366 -594 518 -604 133 -9 243 118 332 382 16 48 29 87 28 87 -1 0 4
20 11 45 7 25 14 54 16 65 2 11 6 31 9 45 4 14 8 36 11 50 5 30 12 66 20 100
2 14 6 39 8 55 3 17 7 46 10 65 34 224 41 300 40 425 -2 121 -6 148 -36 250
-76 261 -281 528 -593 772 -28 22 -121 100 -133 111 -7 6 -17 12 -21 12 -4 0
-16 8 -27 18 -23 21 -124 84 -139 86 -5 1 -14 4 -20 7 -39 24 -174 46 -188 32z
m260 -699 c17 -13 34 -24 37 -24 24 0 166 -200 225 -316 52 -104 99 -231 107
-291 3 -27 8 -51 11 -55 2 -5 1 -8 -4 -8 -4 0 -8 -15 -9 -33 0 -28 -3 -49 -19
-147 -17 -105 -56 -226 -88 -275 -79 -120 -171 -111 -267 25 -41 58 -110 191
-110 213 0 7 -4 17 -8 22 -9 10 -45 119 -48 145 -1 8 -9 43 -18 77 -9 33 -16
65 -15 70 1 4 0 10 -1 13 -4 12 -22 190 -22 225 1 170 54 350 111 378 35 17
79 10 118 -19z"/>
<path d="M8293 4445 c-24 -7 -43 -10 -43 -6 0 3 -4 2 -8 -4 -4 -5 -29 -21 -55
-35 -26 -14 -60 -36 -75 -48 -15 -13 -34 -29 -42 -36 -17 -12 -70 -82 -70 -91
0 -9 -54 -90 -62 -93 -5 -2 -8 -8 -8 -14 0 -5 -28 -49 -62 -96 -78 -108 -242
-273 -328 -330 -36 -24 -74 -55 -84 -69 -21 -28 -29 -110 -13 -130 5 -7 7 -13
3 -13 -4 0 1 -12 11 -27 40 -64 103 -103 165 -103 18 0 71 16 118 36 161 68
242 78 295 36 15 -12 24 -22 19 -22 -4 0 -3 -5 4 -12 24 -24 11 -100 -22 -134
-22 -21 -105 -46 -162 -48 -53 -2 -81 1 -162 18 -13 3 -61 23 -105 45 -98 47
-149 58 -297 64 -94 4 -232 -12 -327 -37 -28 -8 -54 -11 -57 -8 -3 3 -6 0 -6
-7 0 -7 -4 -10 -10 -6 -5 3 -17 1 -27 -4 -10 -5 -38 -17 -63 -26 -105 -39
-213 -114 -256 -180 -22 -33 -27 -99 -11 -137 8 -18 64 -82 124 -143 181 -182
283 -340 347 -537 8 -25 22 -75 30 -110 13 -57 18 -85 32 -183 5 -35 12 -109
19 -219 6 -93 25 -134 75 -158 126 -61 212 6 284 224 34 103 54 202 72 370 3
24 5 108 5 188 0 87 4 150 11 157 6 7 7 13 2 13 -4 0 3 11 16 25 81 86 178 64
320 -74 39 -37 82 -74 98 -82 15 -8 29 -16 32 -19 3 -3 21 -11 40 -17 190 -66
400 5 491 165 18 31 36 59 41 60 4 2 8 12 8 22 0 10 3 20 8 22 10 4 52 95 52
113 0 8 4 15 8 15 5 0 9 6 10 13 0 6 16 56 36 110 43 120 91 312 102 402 2 17
5 44 8 60 3 17 8 46 11 65 3 19 8 112 10 205 3 163 -4 237 -38 360 -43 155
-124 303 -210 382 -91 84 -206 117 -304 88z"/>
<path d="M4606 3393 c-2 -2 -20 -6 -41 -9 -41 -5 -96 -26 -121 -46 -143 -114
-212 -266 -218 -483 -7 -223 148 -368 385 -360 64 2 184 29 199 45 3 3 24 17
47 32 23 15 53 40 68 55 34 37 76 124 82 170 2 21 6 44 8 51 3 6 1 12 -3 12
-4 0 -7 15 -6 33 2 48 -40 206 -72 272 -36 72 -102 147 -161 182 -41 24 -157
56 -167 46z"/>
<path d="M3518 3329 c-7 -4 -26 -9 -43 -12 -16 -3 -54 -14 -82 -25 -29 -11
-53 -18 -53 -15 0 2 -13 -5 -29 -16 -16 -12 -32 -21 -37 -21 -8 0 -96 -55
-128 -80 -28 -21 -148 -141 -169 -168 -10 -13 -23 -34 -29 -48 -6 -13 -15 -24
-20 -24 -4 0 -8 -9 -8 -19 0 -11 -4 -22 -9 -25 -17 -11 -44 -133 -43 -196 1
-85 61 -242 106 -279 9 -8 16 -18 16 -23 0 -5 12 -22 28 -37 15 -16 37 -39 48
-52 12 -13 55 -53 95 -89 101 -89 279 -267 279 -279 0 -5 6 -16 13 -23 39 -43
67 -131 71 -230 1 -27 -2 -48 -6 -48 -4 0 -5 -7 -2 -15 8 -19 -40 -65 -68 -65
-13 0 -36 7 -51 15 -40 20 -124 45 -131 38 -3 -4 -6 -1 -6 6 0 7 -4 10 -9 6
-6 -3 -36 -7 -68 -10 -49 -4 -174 -51 -193 -74 -3 -3 -30 -25 -60 -47 -30 -23
-65 -50 -76 -60 -76 -67 -128 -107 -213 -164 -82 -56 -100 -73 -123 -118 -94
-186 68 -360 434 -467 32 -9 70 -18 85 -21 176 -24 293 -24 410 0 79 17 163
76 195 140 11 22 25 44 30 47 5 3 10 12 12 20 1 8 16 41 33 74 28 55 82 185
88 210 1 5 5 17 8 25 10 28 25 85 31 120 3 19 9 46 12 60 11 52 11 181 -1 247
-37 199 -122 326 -365 543 -140 125 -296 290 -274 290 4 0 0 8 -9 18 -31 34
-55 133 -52 212 1 41 5 85 9 98 3 12 8 31 10 42 26 115 113 162 218 117 59
-25 73 -56 75 -167 2 -118 3 -125 16 -180 14 -62 49 -129 85 -163 85 -81 252
-3 367 173 154 235 150 474 -10 643 -43 46 -117 94 -150 100 -11 1 -26 6 -33
11 -17 10 -206 15 -224 5z"/>
<path d="M2118 3225 c-2 -1 -32 -6 -68 -10 -36 -4 -79 -8 -95 -10 -43 -5 -207
-61 -268 -92 -191 -96 -290 -229 -280 -375 4 -65 31 -139 64 -174 19 -20 19
-24 6 -55 -8 -19 -34 -50 -57 -69 -119 -95 -166 -136 -178 -152 -7 -9 -18 -23
-26 -30 -24 -25 -36 -83 -38 -198 -2 -125 5 -190 28 -260 63 -186 192 -328
389 -428 72 -36 175 -76 230 -89 11 -2 31 -7 45 -10 125 -28 364 -37 475 -18
321 54 545 202 648 428 14 28 28 68 33 87 4 19 10 42 12 50 2 8 6 65 8 125 5
153 -25 234 -119 329 -51 51 -147 123 -147 110 0 -3 -6 -1 -13 5 -20 16 -136
58 -181 65 -21 4 -49 9 -62 12 -39 10 -173 11 -231 2 -110 -17 -198 -82 -311
-227 -36 -47 -69 -88 -73 -91 -3 -3 -8 -10 -10 -16 -18 -51 -195 -227 -254
-253 -80 -35 -166 -32 -240 9 -26 15 -30 23 -33 67 -2 36 2 55 13 66 8 9 15
20 15 26 0 12 102 94 147 119 95 51 201 101 213 99 3 -1 19 6 35 16 17 9 57
28 90 42 220 96 300 144 334 198 30 49 19 88 -41 142 -18 17 -40 34 -48 38 -8
4 -53 28 -100 53 l-85 45 55 -6 c79 -8 101 -12 230 -47 228 -60 313 -67 373
-29 50 31 60 57 64 154 2 80 0 92 -24 130 -52 85 -125 142 -229 178 -67 24
-93 29 -189 35 -38 3 -78 6 -87 8 -9 2 -18 3 -20 1z"/>
<path d="M6115 3022 c-2 -3 -24 -6 -47 -8 -155 -10 -452 -117 -633 -228 -27
-17 -63 -38 -78 -46 -16 -8 -77 -51 -135 -95 -168 -127 -276 -241 -354 -375
-44 -76 -93 -204 -83 -220 3 -5 1 -11 -4 -14 -9 -6 -7 -150 3 -182 10 -34 17
-88 21 -155 6 -121 21 -232 39 -309 4 -14 9 -41 12 -60 3 -19 10 -51 17 -70 6
-19 12 -40 13 -45 1 -6 15 -45 32 -88 82 -203 186 -337 337 -432 166 -104 360
-133 610 -90 113 20 296 93 440 175 37 21 154 99 165 110 3 3 28 23 55 45 67
53 195 182 195 195 0 6 5 8 10 5 6 -3 10 -2 10 3 0 4 8 17 18 28 33 37 120
169 149 229 31 63 75 185 89 245 16 76 12 241 -8 314 -17 63 -72 183 -89 196
-4 3 -18 23 -33 44 -14 21 -26 37 -26 35 0 -3 -30 24 -66 58 -37 35 -70 63
-74 63 -4 0 -20 11 -36 25 -16 14 -34 25 -41 25 -6 0 -13 3 -15 8 -1 4 -37 25
-78 47 -74 39 -77 40 -180 39 -160 0 -265 -21 -374 -76 -172 -86 -277 -227
-316 -423 -13 -60 -8 -174 8 -230 25 -83 87 -165 142 -187 77 -31 170 -12 256
52 69 52 156 145 196 210 12 19 25 37 28 40 16 14 71 109 139 244 31 60 63
113 72 119 24 15 68 0 74 -26 19 -73 -10 -154 -97 -272 -197 -267 -556 -487
-794 -487 -100 0 -159 17 -238 70 -39 27 -234 261 -263 317 -9 16 -22 35 -29
43 -8 7 -32 51 -54 96 -77 158 -73 255 11 338 34 34 196 104 251 109 4 0 22 5
40 10 18 5 46 12 61 14 16 2 40 6 55 10 51 11 77 16 102 20 30 5 124 23 160
31 14 3 36 7 50 10 52 10 256 65 280 75 179 76 174 73 198 117 68 123 59 226
-24 274 -28 16 -159 39 -169 30z"/>
<path d="M4308 2419 c-16 -4 -28 -6 -28 -4 0 3 -31 -11 -68 -31 -132 -66 -229
-195 -268 -354 -15 -61 -19 -121 -21 -320 -1 -135 -5 -351 -8 -480 -13 -463
-9 -527 41 -635 39 -85 131 -160 224 -181 19 -4 40 -9 45 -10 82 -18 226 -20
315 -4 36 6 76 13 90 15 36 6 138 33 150 40 5 3 18 8 28 10 35 6 111 47 138
73 47 47 55 82 40 168 -5 26 -75 185 -86 194 -4 3 -41 75 -82 160 -65 132
-131 295 -143 350 -2 8 -8 33 -13 55 -43 161 -56 351 -36 540 14 145 11 226
-13 270 -60 114 -191 176 -305 144z"/>
</g>
</svg>
